# AST/ASF file generated using VICON BodyLanguage
# -----------------------------------------------
:version 1.10
:name VICON
:units
  mass 1.0
  length 0.45
  angle deg
:documentation
   .ast/.asf automatically generated from VICON data using
   VICON BodyBuilder and BodyLanguage model FoxedUp or BRILLIANT.MOD
:root
   order TX TY TZ RX RY RZ
   axis XYZ
   position 0 0 0  
   orientation 0 0 0 
:bonedata
  begin
     id 1 
     name lhipjoint
     direction 0.64773 -0.699417 0.302095 
     length 2.48597 
     axis 0 0 0  XYZ
  end
  begin
     id 2 
     name lfemur
     direction 0.34202 -0.939693 0  
     length 6.71947  
     axis 0 0 20  XYZ
    dof rx ry rz
    limits (-160.0 20.0)
           (-70.0 70.0)
           (-60.0 70.0)
  end
  begin
     id 3 
     name ltibia
     direction 0.34202 -0.939693 0   
     length 8.08777   
     axis 0 0 20   XYZ
    dof rx
    limits (-10.0 170.0)
  end
  begin
     id 4 
     name lfoot
     direction 0.0808503 -0.222134 0.971658   
     length 2.08264   
     axis -90 7.62852e-016 20   XYZ
    dof rx rz
    limits (-45.0 90.0)
           (-70.0 20.0)
  end
  begin
     id 5 
     name ltoes
     direction 1.53502e-011 -4.22007e-011 1   
     length 1.04662   
     axis -90 7.62852e-016 20   XYZ
    dof rx
    limits (-90.0 20.0)
  end
  begin
     id 6 
     name rhipjoint
     direction -0.610924 -0.726792 0.313919   
     length 2.39233  
     axis 0 0 0  XYZ 
  end
  begin
     id 7 
     name rfemur
     direction -0.34202 -0.939693 0   
     length 6.96955   
     axis 0 0 -20   XYZ
    dof rx ry rz
    limits (-160.0 20.0)
           (-70.0 70.0)
           (-70.0 60.0)
  end
  begin
     id 8 
     name rtibia
     direction -0.34202 -0.939693 0   
     length 8.19584   
     axis 0 0 -20   XYZ
    dof rx
    limits (-10.0 170.0)
 end
 begin
     id 9 
     name rfoot
     direction -0.077777 -0.213691 0.9738   
     length 2.07539  
     axis -90 -7.62852e-016 -20   XYZ
    dof rx rz
    limits (-45.0 90.0)
           (-20.0 70.0)
  end
  begin
     id 10 
     name rtoes
     direction -1.53558e-011 -4.22006e-011 1   
     length 1.04381   
     axis -90 -7.62852e-016 -20   XYZ
    dof rx
    limits (-90.0 20.0)
  end
  begin
     id 11 
     name lowerback
     direction -0.00971646 0.996074 0.0879841   
     length 1.67643   
     axis 0 0 0   XYZ
    dof rx ry rz
    limits (-20.0 45.0)
           (-30.0 30.0)
           (-30.0 30.0)
  end
  begin
     id 12 
     name upperback
     direction 0.0127391 0.991676 0.128127   
     length 1.63741   
     axis 0 0 0   XYZ
    dof rx ry rz
    limits (-20.0 45.0)
           (-30.0 30.0)
           (-30.0 30.0)
  end
  begin
     id 13 
     name thorax
     direction 0.0167583 0.996049 0.0872067   
     length 1.65931   
     axis 0 0 0   XYZ
    dof rx ry rz
    limits (-20.0 45.0)
           (-30.0 30.0)
           (-30.0 30.0)
  end
  begin
     id 14 
     name lowerneck
     direction -0.0317829 0.998312 0.0486079   
     length 1.79021   
     axis 0 0 0   XYZ
    dof rx ry rz
    limits (-20.0 45.0)
           (-30.0 30.0)
           (-30.0 30.0)
  end
  begin
     id 15 
     name upperneck
     direction 0.0896851 0.972452 -0.215159   
     length 1.78797   
     axis 0 0 0   XYZ
    dof rx ry rz
    limits (-20.0 45.0)
           (-30.0 30.0)
           (-30.0 30.0)
  end
  begin
     id 16
     name head
     direction 0.0310949 0.996503 -0.0775582  
     length 1.81549  
     axis 0 0 0   XYZ
    dof rx ry rz
    limits (-20.0 45.0)
           (-30.0 30.0)
           (-30.0 30.0)
  end
  begin
     id 17 
     name lclavicle
     direction 0.853638 0.502051 -0.138733  
     length 3.31627  
     axis 0 0 0   XYZ
    dof ry rz
    limits (-20.0 10.0)
           (0.0 20.0)
  end
  begin
     id 18 
     name lhumerus
     direction 1 -4.48962e-011 -1.41788e-018   
     length 5.54893   
     axis 180 -30 -90   XYZ
    dof rx ry rz
    limits (-60.0 90.0)
           (-90.0 90.0)
           (-90.0 90.0)
  end
  begin
     id 19
     name lradius
     direction 1 -4.48962e-011 -4.95754e-027   
     length 3.02898   
     axis 180 -30 -90   XYZ
    dof rx
    limits (-10.0 170.0)
  end
  begin
     id 20
     name lwrist
     direction 1 -4.48952e-011 -1.03764e-026   
     length 1.51449   
     axis 9.09556e-015 90 90   XYZ
    dof ry
    limits (-180.0 0.0)
 end
  begin
     id 21 
     name lhand
     direction 1 -4.4902e-011 -2.07528e-026   
     length 0.640951   
     axis 1.3242e-014 90 90   XYZ
    dof rx rz
    limits (-90.0 90.0)
           (-45.0 45.0)
  end
  begin
     id 22 
     name lfingers
     direction 1 -4.49014e-011 -4.15056e-026   
     length 0.516751   
     axis 2.64841e-014 90 90   XYZ
    dof rx
    limits (0.0 90.0)
  end
  begin
     id 23
     name lthumb
     direction 0.707107 -6.35008e-011 0.707107   
     length 0.741954   
     axis -90 45 2.85299e-015   XYZ
    dof rx rz
    limits (-45.0 45.0)
           (-45.0 45.0)
  end
  begin
     id 24 
     name rclavicle
     direction -0.888531 0.455324 -0.0565039   
     length 3.20126  
     axis 0 0 0   XYZ 
    dof ry rz
    limits (-10.0 20.0)
           (-20.0 0.0)
  end
  begin
     id 25 
     name rhumerus
     direction -1 -4.48946e-011 -8.98298e-028  
     length 5.3519   
     axis 180 30 90   XYZ
    dof rx ry rz
    limits (-90.0 60.0)
           (-90.0 90.0)
           (-90.0 90.0)
  end
  begin
     id 26 
     name rradius
     direction -1 -4.4899e-011 -3.18779e-027   
     length 3.02531   
     axis 180 30 90   XYZ
    dof rx
    limits (-10.0 170.0)
  end
  begin
     id 27 
     name rwrist
     direction -1 -4.4897e-011 -1.03764e-026   
     length 1.51266   
     axis 9.09556e-015 -90 -90   XYZ
    dof ry
    limits (-180.0 0.0)
  end
  begin
     id 28
     name rhand
     direction -1 -4.48941e-011 -2.07528e-026   
     length 0.78389   
     axis 1.3242e-014 -90 -90   XYZ
    dof rx rz
    limits (-90.0 90.0)
           (-45.0 45.0)
  end
  begin
     id 29
     name rfingers
     direction -1 -4.49012e-011 -4.15056e-026   
     length 0.631992   
     axis 2.64841e-014 -90 -90   XYZ
    dof rx
    limits (0.0 90.0)
  end
  begin
     id 30
     name rthumb
     direction -0.707107 -6.3496e-011 0.707107   
     length 0.907418   
     axis -90 -45 -2.85299e-015   XYZ
    dof rx rz
    limits (-45.0 45.0)
           (-45.0 45.0)
  end
:hierarchy
  begin
    root lhipjoint rhipjoint lowerback
    lhipjoint lfemur
    lfemur ltibia
    ltibia lfoot
    lfoot ltoes
    rhipjoint rfemur
    rfemur rtibia
    rtibia rfoot
    rfoot rtoes
    lowerback upperback
    upperback thorax
    thorax lowerneck lclavicle rclavicle
    lowerneck upperneck
    upperneck head
    lclavicle lhumerus
    lhumerus lradius
    lradius lwrist
    lwrist lhand lthumb
    lhand lfingers
    rclavicle rhumerus
    rhumerus rradius
    rradius rwrist
    rwrist rhand rthumb
    rhand rfingers
  end

#!OML:ASF E:\Style3\Style3.ASF
:FULLY-SPECIFIED
:DEGREES
1502
root -0.142816 17.8713 0.789113 -125.353 86.5479 -139.162
lowerback -4.99428 0.692134 -0.309776
upperback -4.48638 1.03916 -1.59275
thorax -1.78982 0.557482 -1.42961
lowerneck 0.55052 4.94657 -1.90483
upperneck 20.7963 7.39669 1.68492
head 6.07916 3.8598 1.24531
rclavicle -9.34288e-015 7.95139e-015
rhumerus 6.06969 43.8005 -80.0317
rradius 134.591
rwrist -55.8363
rhand -27.1836 17.6539
rfingers 7.12502
rthumb -0.597382 -12.325
lclavicle -9.34288e-015 7.95139e-015
lhumerus -9.10888 -43.8338 94.7268
lradius 134.828
lwrist 39.548
lhand -30.712 4.79307
lfingers 7.12502
lthumb -4.00498 34.7352
rfemur -12.5357 12.1086 16.1273
rtibia 9.36892
rfoot -8.92656 -20.4976
rtoes -21.9558
lfemur 0 0 0
ltibia 0
lfoot 0 0
ltoes 0
1503
root -0.136391 17.8707 0.786981 -124.882 86.6207 -138.584
lowerback -4.94815 0.685128 -0.338852
upperback -4.57655 1.03211 -1.55837
thorax -1.90999 0.555969 -1.38013
lowerneck 0.362916 5.39776 -1.53091
upperneck 21.2268 7.95098 2.12747
head 6.23446 4.19051 1.3676
rclavicle 3.57812e-015 -6.36111e-015
rhumerus 6.35841 42.6841 -80.2595
rradius 134.882
rwrist -60.9039
rhand -27.6558 16.4516
rfingers 7.12502
rthumb -1.05348 -13.5256
lclavicle 3.57812e-015 -6.36111e-015
lhumerus -9.57475 -43.4684 94.959
lradius 134.813
lwrist 39.1898
lhand -31.0843 5.63299
lfingers 7.12502
lthumb -4.36455 35.568
rfemur -12.2999 12.1842 16.0963
rtibia 9.16205
rfoot -8.71999 -20.5065
rtoes -22.6931
lfemur 0 0 0
ltibia 0
lfoot 0 0
ltoes 0
1504
root -0.130327 17.8694 0.784536 -124.607 86.7311 -138.218
lowerback -4.82981 0.724062 -0.355223
upperback -4.74383 1.08645 -1.56841
thorax -2.14805 0.585143 -1.38388
lowerneck 0.100177 5.79403 -1.28001
upperneck 21.9376 8.41152 2.81483
head 6.47773 4.49157 1.59707
rclavicle -5.04416e-015 1.59028e-014
rhumerus 6.53324 41.5213 -80.5415
rradius 135.152
rwrist -65.2109
rhand -27.9909 15.4374
rfingers 7.12502
rthumb -1.37709 -14.5379
lclavicle -5.04416e-015 1.59028e-014
lhumerus -10.1354 -43.2435 95.2541
lradius 134.825
lwrist 38.7298
lhand -31.6679 6.65169
lfingers 7.12502
lthumb -4.9281 36.5744
rfemur -12.1506 12.2689 16.0217
rtibia 9.08516
rfoot -8.76242 -20.4899
rtoes -22.8414
lfemur 0 0 0
ltibia 0
lfoot 0 0
ltoes 0
1505
root -0.123469 17.8681 0.782276 -123.469 86.8275 -136.989
lowerback -4.79287 0.794859 -0.315129
upperback -4.87859 1.18238 -1.60019
thorax -2.30489 0.633195 -1.43903
lowerneck -0.11997 6.16089 -0.92837
upperneck 22.6436 8.81976 3.50768
head 6.71747 4.78076 1.81254
rclavicle -4.4975e-015 -5.56597e-015
rhumerus 6.79404 40.1569 -80.8466
rradius 135.47
rwrist -69.4613
rhand -27.9187 14.097
rfingers 7.12502
rthumb -1.30743 -15.8788
lclavicle -4.4975e-015 -5.56597e-015
lhumerus -10.6532 -43.1032 95.4754
lradius 134.853
lwrist 38.2742
lhand -32.8008 6.77685
lfingers 7.12502
lthumb -6.02186 36.6713
rfemur -12.0601 12.3851 15.9879
rtibia 9.09172
rfoot -8.79541 -20.5019
rtoes -23.0081
lfemur 0 0 0
ltibia 0
lfoot 0 0
ltoes 0
1506
root -0.119253 17.8668 0.781159 -122.306 86.9093 -135.738
lowerback -4.83848 0.865585 -0.272888
upperback -4.92099 1.27734 -1.62621
thorax -2.31989 0.67992 -1.48668
lowerneck -0.240319 6.53707 -0.506452
upperneck 23.1613 9.24012 4.09272
head 6.88829 5.07392 1.97625
rclavicle -1.15295e-014 1.59028e-015
rhumerus 7.35978 38.6056 -80.9991
rradius 135.578
rwrist -73.2845
rhand -27.436 12.7142
rfingers 7.12502
rthumb -0.841157 -17.2639
lclavicle -1.15295e-014 1.59028e-015
lhumerus -10.8812 -42.9478 95.4968
lradius 134.907
lwrist 38.0503
lhand -33.4765 6.5732
lfingers 7.12502
lthumb -6.67418 36.448
rfemur -11.9481 12.4925 15.9669
rtibia 9.06541
rfoot -8.96046 -20.5107
rtoes -22.2529
lfemur 0 0 0
ltibia 0
lfoot 0 0
ltoes 0
1507
root -0.116584 17.8658 0.780792 -120.464 86.9432 -133.834
lowerback -4.89457 0.961937 -0.153816
upperback -4.93865 1.4036 -1.64683
thorax -2.30082 0.739783 -1.5702
lowerneck -0.374162 6.88879 -0.0419488
upperneck 23.6091 9.62691 4.61509
head 7.04586 5.35025 2.11261
rclavicle -1.25483e-014 3.18055e-015
rhumerus 8.09089 37.1985 -80.9852
rradius 135.407
rwrist -75.7271
rhand -26.8467 11.7314
rfingers 7.12502
rthumb -0.272034 -18.2482
lclavicle -1.25483e-014 3.18055e-015
lhumerus -11.0274 -42.8232 95.4494
lradius 134.921
lwrist 37.9842
lhand -33.6753 6.51442
lfingers 7.12502
lthumb -6.86618 36.3831
rfemur -11.8627 12.6052 16.0172
rtibia 9.05371
rfoot -9.40012 -20.5098
rtoes -20.0811
lfemur 0 0 0
ltibia 0
lfoot 0 0
ltoes 0
